<svg xmlns="http://www.w3.org/2000/svg" width="32" height="32"><path id="book" d="M422.065 1421.89l-14.471 5.99a1.53 1.53 0 01-1.188 0l-14.471-5.99a1.5 1.5 0 01-.935-1.39v-23a1.5 1.5 0 011.5-1.5 1.55 1.55 0 01.573.11.012.012 0 00.013.01l13.914 5.76 13.911-5.76a.012.012 0 00.013-.01 1.55 1.55 0 01.573-.11 1.5 1.5 0 011.5 1.5v23a1.5 1.5 0 01-.932 1.39zM405.5 1404.5l-11.5-4.76v19.76l11.5 4.76v-19.76zm14.5-4.76l-11.5 4.76v19.76l11.5-4.76v-19.76zm-9.121 6.89l5.5-2.5a1.593 1.593 0 01.621-.13 1.5 1.5 0 01.621 2.87l-5.5 2.5a1.6 1.6 0 01-.621.13 1.5 1.5 0 01-.621-2.87zm0 5.5l5.5-2.5a1.593 1.593 0 01.621-.13 1.5 1.5 0 01.621 2.87l-5.5 2.5v-.01a1.445 1.445 0 01-.621.14 1.5 1.5 0 01-.621-2.87zm0 5.5l5.5-2.5a1.593 1.593 0 01.621-.13 1.5 1.5 0 01.621 2.87l-5.5 2.5a1.6 1.6 0 01-.621.13 1.5 1.5 0 01-.621-2.87zM397 1404a1.6 1.6 0 01.621.13l5.5 2.5a1.5 1.5 0 01-.621 2.87 1.593 1.593 0 01-.621-.13l-5.5-2.5A1.5 1.5 0 01397 1404zm0 5.5a1.6 1.6 0 01.621.13l5.5 2.5a1.5 1.5 0 01-.621 2.87 1.439 1.439 0 01-.621-.14v.01l-5.5-2.5a1.5 1.5 0 01.621-2.87zm0 5.5a1.6 1.6 0 01.621.13l5.5 2.5a1.5 1.5 0 01-.621 2.87 1.593 1.593 0 01-.621-.13l-5.5-2.5A1.5 1.5 0 01397 1415z" transform="translate(-391 -1396)" fill="#95e1d3" fill-rule="evenodd"/></svg>