<svg xmlns="http://www.w3.org/2000/svg" width="32" height="30.5"><path id="home" d="M822 1412.5a1.493 1.493 0 01-2.52 1.09v.01l-13.439-13.44-.038-.04-13.446 13.45a1.525 1.525 0 01-1.053.43 1.5 1.5 0 01-1.5-1.5 1.479 1.479 0 01.461-1.08l14.458-14.46a1.51 1.51 0 011.081-.46h.092c.023 0 .045.01.068.01a1.479 1.479 0 01.933.47l5.9 5.9v-1.38a1.5 1.5 0 013 0v4.38l5.6 5.6a1.485 1.485 0 01.403 1.02zm-3 2.5v10.5a1.5 1.5 0 01-1.5 1.5h-3v-12h-6v12h-14a1.5 1.5 0 01-1.5-1.5V1415l13-13zm-15.5 0h-6v6h6v-6z" transform="translate(-790 -1396.5)" fill="#95e1d3" fill-rule="evenodd"/></svg>