<svg xmlns="http://www.w3.org/2000/svg" width="32" height="32"><path id="line" d="M821.5 1258h-29a1.5 1.5 0 01-1.5-1.5v-29a1.5 1.5 0 011.5-1.5h29a1.5 1.5 0 011.5 1.5v29a1.5 1.5 0 01-1.5 1.5zm-1.5-29h-26v26h26v-26zm-23.785 13.24l4-2.5a1.524 1.524 0 011.625.03h.006l6.631 4.42 7.638-5.4a1.5 1.5 0 111.763 2.43l-8.5 6a1.486 1.486 0 01-.878.29 1.505 1.505 0 01-.861-.28l-6.657-4.43-3.135 1.95a1.465 1.465 0 01-.847.27 1.5 1.5 0 01-.785-2.78z" transform="translate(-791 -1226)" fill="#95e1d3" fill-rule="evenodd"/></svg>