<svg xmlns="http://www.w3.org/2000/svg" width="17.62" height="14.031"><path id="SHOPPING_CART" data-name="SHOPPING CART" d="M1501.73 40.663l-2.48 5.5a.815.815 0 01-.7.484l-7.12.475.41 1.177h7.76a1.65 1.65 0 11-1.65 1.651h-7.7a1.65 1.65 0 11-1.65-1.651h1.49l-3.18-9.075h-1.89a.825.825 0 010-1.65h2.48a.835.835 0 01.78.554l.48 1.373h12.21a.826.826 0 01.83.825.941.941 0 01-.07.337zm-12.39.487l1.52 4.357 7.09-.473 1.75-3.884h-10.36z" transform="translate(-1484.19 -37.563)" fill="#fff" fill-rule="evenodd"/></svg>